<svg width="64" height="64" viewBox="0 0 64 64" fill="none" xmlns="http://www.w3.org/2000/svg">
<path d="M51.523 14.8325C51.118 14.6232 50.7238 14.3937 50.3418 14.145C49.2308 13.4106 48.2123 12.5452 47.308 11.5675C45.0455 8.97875 44.2005 6.3525 43.8893 4.51375H43.9018C43.6418 2.9875 43.7493 2 43.7655 2H33.4605V41.8475C33.4605 42.3825 33.4605 42.9112 33.438 43.4337C33.438 43.4987 33.4318 43.5587 33.428 43.6287C33.428 43.6575 33.428 43.6875 33.4218 43.7175V43.74C33.3132 45.1697 32.8548 46.5508 32.0872 47.7619C31.3195 48.9729 30.266 49.9767 29.0193 50.685C27.72 51.4242 26.2504 51.8119 24.7555 51.81C19.9543 51.81 16.063 47.895 16.063 43.06C16.063 38.225 19.9543 34.31 24.7555 34.31C25.6644 34.3092 26.5676 34.4522 27.4318 34.7337L27.4443 24.2412C24.821 23.9024 22.1559 24.1109 19.6172 24.8535C17.0786 25.5962 14.7213 26.857 12.6943 28.5562C10.9181 30.0995 9.42488 31.9409 8.28178 33.9975C7.84678 34.7475 6.20553 37.7612 6.00678 42.6525C5.88178 45.4287 6.71553 48.305 7.11303 49.4937V49.5187C7.36303 50.2187 8.33178 52.6075 9.91053 54.6212C11.1836 56.2366 12.6876 57.6556 14.3743 58.8325V58.8075L14.3993 58.8325C19.388 62.2225 24.9193 62 24.9193 62C25.8768 61.9612 29.0843 62 32.7268 60.2737C36.7668 58.36 39.0668 55.5087 39.0668 55.5087C40.5361 53.8051 41.7045 51.8636 42.5218 49.7675C43.4543 47.3162 43.7655 44.3762 43.7655 43.2012V22.0612C43.8905 22.1362 45.5555 23.2375 45.5555 23.2375C45.5555 23.2375 47.9543 24.775 51.6968 25.7762C54.3818 26.4887 57.9993 26.6387 57.9993 26.6387V16.4087C56.7318 16.5462 54.158 16.1462 51.523 14.8325V14.8325Z" fill="white"/>
</svg>
