<svg width="64" height="64" viewBox="0 0 64 64" fill="none" xmlns="http://www.w3.org/2000/svg">
<path fill-rule="evenodd" clip-rule="evenodd" d="M25.1447 23.9175H35.0487V28.8508C36.4753 26.0135 40.134 23.4642 45.63 23.4642C56.166 23.4642 58.6673 29.1122 58.6673 39.4748V58.6668H48.0007V41.8348C48.0007 35.9335 46.574 32.6055 42.942 32.6055C37.9047 32.6055 35.8113 36.1922 35.8113 41.8322V58.6668H25.1447V23.9175V23.9175ZM6.85398 58.2135H17.5207V23.4642H6.85398V58.2135V58.2135ZM19.0487 12.1335C19.049 13.0276 18.8717 13.9128 18.527 14.7377C18.1823 15.5627 17.6771 16.3109 17.0407 16.9388C15.7511 18.2205 14.0055 18.9379 12.1873 18.9335C10.3724 18.9323 8.63081 18.2167 7.33932 16.9415C6.70521 16.3114 6.20168 15.5624 5.85757 14.7373C5.51345 13.9123 5.33553 13.0274 5.33398 12.1335C5.33398 10.3282 6.05398 8.60016 7.34198 7.3255C8.63234 6.04859 10.3746 5.3327 12.19 5.3335C14.0087 5.3335 15.7527 6.05083 17.0407 7.3255C18.326 8.60016 19.0487 10.3282 19.0487 12.1335Z" fill="white"/>
</svg>
