<svg width="64" height="64" viewBox="0 0 64 64" fill="none" xmlns="http://www.w3.org/2000/svg">
<path fill-rule="evenodd" clip-rule="evenodd" d="M19.906 2.8425C23.034 2.6985 24.0313 2.6665 31.9993 2.6665C39.9673 2.6665 40.9647 2.70117 44.09 2.8425C47.2154 2.98384 49.3487 3.4825 51.2153 4.20517C53.17 4.94384 54.9433 6.0985 56.41 7.59184C57.9033 9.05584 59.0554 10.8265 59.7914 12.7838C60.5167 14.6505 61.0127 16.7838 61.1567 19.9038C61.3007 23.0372 61.3327 24.0345 61.3327 31.9998C61.3327 39.9678 61.298 40.9652 61.1567 44.0932C61.0154 47.2132 60.5167 49.3465 59.7914 51.2132C59.0553 53.1708 57.9014 54.9444 56.41 56.4105C54.9433 57.9038 53.17 59.0558 51.2153 59.7918C49.3487 60.5172 47.2153 61.0132 44.0953 61.1572C40.9647 61.3012 39.9673 61.3332 31.9993 61.3332C24.0313 61.3332 23.034 61.2985 19.906 61.1572C16.786 61.0158 14.6527 60.5172 12.786 59.7918C10.8285 59.0557 9.05487 57.9019 7.58868 56.4105C6.09636 54.9456 4.94152 53.1729 4.20468 51.2158C3.48202 49.3492 2.98602 47.2158 2.84202 44.0958C2.69802 40.9625 2.66602 39.9652 2.66602 31.9998C2.66602 24.0318 2.70068 23.0345 2.84202 19.9092C2.98335 16.7838 3.48202 14.6505 4.20468 12.7838C4.94261 10.8267 6.09833 9.05401 7.59135 7.58917C9.05546 6.09717 10.8273 4.94235 12.7833 4.20517C14.65 3.4825 16.7834 2.9865 19.9034 2.8425H19.906ZM43.8527 8.1225C40.7593 7.98117 39.8314 7.95184 31.9993 7.95184C24.1673 7.95184 23.2393 7.98117 20.146 8.1225C17.2847 8.25317 15.7327 8.7305 14.698 9.13317C13.33 9.6665 12.3513 10.2985 11.3247 11.3252C10.3515 12.272 9.6025 13.4246 9.13268 14.6985C8.73002 15.7332 8.25268 17.2852 8.12202 20.1465C7.98068 23.2398 7.95135 24.1678 7.95135 31.9998C7.95135 39.8318 7.98068 40.7598 8.12202 43.8532C8.25268 46.7145 8.73002 48.2665 9.13268 49.3012C9.60202 50.5732 10.3513 51.7278 11.3247 52.6745C12.2713 53.6478 13.426 54.3972 14.698 54.8665C15.7327 55.2692 17.2847 55.7465 20.146 55.8772C23.2393 56.0185 24.1647 56.0478 31.9993 56.0478C39.834 56.0478 40.7593 56.0185 43.8527 55.8772C46.714 55.7465 48.266 55.2692 49.3007 54.8665C50.6687 54.3332 51.6474 53.7012 52.674 52.6745C53.6474 51.7278 54.3967 50.5732 54.866 49.3012C55.2687 48.2665 55.746 46.7145 55.8767 43.8532C56.018 40.7598 56.0473 39.8318 56.0473 31.9998C56.0473 24.1678 56.018 23.2398 55.8767 20.1465C55.746 17.2852 55.2687 15.7332 54.866 14.6985C54.3327 13.3305 53.7007 12.3518 52.674 11.3252C51.7272 10.352 50.5746 9.60307 49.3007 9.13317C48.266 8.7305 46.714 8.25317 43.8527 8.1225V8.1225ZM28.2527 41.0425C30.3451 41.9135 32.675 42.0311 34.8445 41.3751C37.014 40.7191 38.8884 39.3303 40.1476 37.4458C41.4069 35.5614 41.9728 33.2982 41.7488 31.0428C41.5248 28.7874 40.5247 26.6798 38.9194 25.0798C37.896 24.0571 36.6586 23.274 35.2962 22.7869C33.9339 22.2998 32.4805 22.1208 31.0407 22.2628C29.6008 22.4048 28.2104 22.8643 26.9695 23.6082C25.7286 24.3521 24.668 25.3618 23.8642 26.5648C23.0603 27.7677 22.5332 29.1339 22.3207 30.5651C22.1083 31.9962 22.2158 33.4566 22.6355 34.8412C23.0552 36.2258 23.7766 37.5001 24.7479 38.5724C25.7192 39.6447 26.9162 40.4883 28.2527 41.0425ZM21.338 21.3385C22.7381 19.9384 24.4002 18.8278 26.2295 18.0701C28.0588 17.3124 30.0194 16.9224 31.9993 16.9224C33.9793 16.9224 35.9399 17.3124 37.7692 18.0701C39.5985 18.8278 41.2606 19.9384 42.6607 21.3385C44.0608 22.7386 45.1713 24.4007 45.9291 26.23C46.6868 28.0592 47.0768 30.0198 47.0768 31.9998C47.0768 33.9798 46.6868 35.9404 45.9291 37.7697C45.1713 39.599 44.0608 41.2611 42.6607 42.6612C39.8331 45.4887 35.9981 47.0772 31.9993 47.0772C28.0006 47.0772 24.1656 45.4887 21.338 42.6612C18.5105 39.8336 16.9219 35.9986 16.9219 31.9998C16.9219 28.0011 18.5105 24.1661 21.338 21.3385V21.3385ZM50.4207 19.1678C50.7676 18.8406 51.0454 18.447 51.2375 18.0104C51.4296 17.5739 51.5322 17.1032 51.5391 16.6263C51.5461 16.1494 51.4573 15.676 51.278 15.234C51.0987 14.792 50.8325 14.3905 50.4952 14.0533C50.158 13.716 49.7565 13.4499 49.3145 13.2706C48.8726 13.0912 48.3991 13.0024 47.9222 13.0094C47.4453 13.0163 46.9746 13.1189 46.5381 13.311C46.1015 13.5031 45.708 13.7809 45.3807 14.1278C44.7442 14.8026 44.3957 15.6988 44.4092 16.6263C44.4227 17.5538 44.7972 18.4395 45.4531 19.0954C46.109 19.7513 46.9947 20.1258 47.9222 20.1393C48.8497 20.1528 49.7459 19.8043 50.4207 19.1678V19.1678Z" fill="white"/>
</svg>
